<?xml version="1.0" standalone="no"?><!DOCTYPE svg PUBLIC "-//W3C//DTD SVG 1.1//EN" "http://www.w3.org/Graphics/SVG/1.1/DTD/svg11.dtd"><svg xmlns="http://www.w3.org/2000/svg" viewBox="0 0 650 500" version="1.1"><clipPath id="box"><rect x="0" y="0" width="650" height="500" style="fill:none;stroke:none;" /></clipPath><g clip-path="url(#box)"><rect x="0.00" y="0.00" width="650.00" height="500.00" style="fill:#FFFFFF;stroke:none;" /><path d="M0.00 500.00 L650.00 500.00 M0.00 450.00 L650.00 450.00 M0.00 400.00 L650.00 400.00 M0.00 350.00 L650.00 350.00 M0.00 300.00 L650.00 300.00 M0.00 250.00 L650.00 250.00 M0.00 200.00 L650.00 200.00 M0.00 150.00 L650.00 150.00 M0.00 100.00 L650.00 100.00 M0.00 50.00 L650.00 50.00 M0.00 0.00 L650.00 0.00 M0.00 0.00 L0.00 500.00 M35.00 0.00 L35.00 500.00 M71.00 0.00 L71.00 500.00 M106.00 0.00 L106.00 500.00 M142.00 0.00 L142.00 500.00 M178.00 0.00 L178.00 500.00 M213.00 0.00 L213.00 500.00 M249.00 0.00 L249.00 500.00 M284.00 0.00 L284.00 500.00 M320.00 0.00 L320.00 500.00 M356.00 0.00 L356.00 500.00 M391.00 0.00 L391.00 500.00 M427.00 0.00 L427.00 500.00 M463.00 0.00 L463.00 500.00 M498.00 0.00 L498.00 500.00 M534.00 0.00 L534.00 500.00 M569.00 0.00 L569.00 500.00 M605.00 0.00 L605.00 500.00 M641.00 0.00 L641.00 500.00 " style="fill:none;stroke:#D0D0D0;stroke-width:1;" /><path d="M0.00 0.00 L0.00 500.00 " style="fill:none;stroke:#000000;stroke-width:1;" /><path d="M-6.50 500.00 L6.50 500.00 M-6.50 450.00 L6.50 450.00 M-6.50 400.00 L6.50 400.00 M-6.50 350.00 L6.50 350.00 M-6.50 300.00 L6.50 300.00 M-6.50 250.00 L6.50 250.00 M-6.50 200.00 L6.50 200.00 M-6.50 150.00 L6.50 150.00 M-6.50 100.00 L6.50 100.00 M-6.50 50.00 L6.50 50.00 M-6.50 0.00 L6.50 0.00 " style="fill:none;stroke:#000000;stroke-width:1;" /><path d="M0.00 500.00 L650.00 500.00 " style="fill:none;stroke:#000000;stroke-width:1;" /><path d="M0.00 493.50 L0.00 506.50 M35.62 493.50 L35.62 506.50 M71.23 493.50 L71.23 506.50 M106.85 493.50 L106.85 506.50 M142.47 493.50 L142.47 506.50 M178.08 493.50 L178.08 506.50 M213.70 493.50 L213.70 506.50 M249.32 493.50 L249.32 506.50 M284.93 493.50 L284.93 506.50 M320.55 493.50 L320.55 506.50 M356.16 493.50 L356.16 506.50 M391.78 493.50 L391.78 506.50 M427.40 493.50 L427.40 506.50 M463.01 493.50 L463.01 506.50 M498.63 493.50 L498.63 506.50 M534.25 493.50 L534.25 506.50 M569.86 493.50 L569.86 506.50 M605.48 493.50 L605.48 506.50 M641.10 493.50 L641.10 506.50 " style="fill:none;stroke:#000000;stroke-width:1;" /><text x="8.125" y="452.5" text-anchor="start" style="font:10px Droid Sans,Trebuchet MS,Arial,Helvetica,sans-serif;stroke:none;fill:#000000">0.1</text><text x="8.125" y="402.5" text-anchor="start" style="font:10px Droid Sans,Trebuchet MS,Arial,Helvetica,sans-serif;stroke:none;fill:#000000">0.2</text><text x="8.125" y="352.5" text-anchor="start" style="font:10px Droid Sans,Trebuchet MS,Arial,Helvetica,sans-serif;stroke:none;fill:#000000">0.3</text><text x="8.125" y="302.5" text-anchor="start" style="font:10px Droid Sans,Trebuchet MS,Arial,Helvetica,sans-serif;stroke:none;fill:#000000">0.4</text><text x="8.125" y="252.5" text-anchor="start" style="font:10px Droid Sans,Trebuchet MS,Arial,Helvetica,sans-serif;stroke:none;fill:#000000">0.5</text><text x="8.125" y="202.5" text-anchor="start" style="font:10px Droid Sans,Trebuchet MS,Arial,Helvetica,sans-serif;stroke:none;fill:#000000">0.6</text><text x="8.125" y="152.50000000000003" text-anchor="start" style="font:10px Droid Sans,Trebuchet MS,Arial,Helvetica,sans-serif;stroke:none;fill:#000000">0.7</text><text x="8.125" y="102.50000000000003" text-anchor="start" style="font:10px Droid Sans,Trebuchet MS,Arial,Helvetica,sans-serif;stroke:none;fill:#000000">0.8</text><text x="8.125" y="52.50000000000004" text-anchor="start" style="font:10px Droid Sans,Trebuchet MS,Arial,Helvetica,sans-serif;stroke:none;fill:#000000">0.9</text><text x="35.61643835616438" y="489.625" text-anchor="middle" style="font:10px Droid Sans,Trebuchet MS,Arial,Helvetica,sans-serif;stroke:none;fill:#000000">20</text><text x="71.23287671232876" y="489.625" text-anchor="middle" style="font:10px Droid Sans,Trebuchet MS,Arial,Helvetica,sans-serif;stroke:none;fill:#000000">40</text><text x="106.84931506849314" y="489.625" text-anchor="middle" style="font:10px Droid Sans,Trebuchet MS,Arial,Helvetica,sans-serif;stroke:none;fill:#000000">60</text><text x="142.46575342465752" y="489.625" text-anchor="middle" style="font:10px Droid Sans,Trebuchet MS,Arial,Helvetica,sans-serif;stroke:none;fill:#000000">80</text><text x="178.08219178082192" y="489.625" text-anchor="middle" style="font:10px Droid Sans,Trebuchet MS,Arial,Helvetica,sans-serif;stroke:none;fill:#000000">100</text><text x="213.69863013698628" y="489.625" text-anchor="middle" style="font:10px Droid Sans,Trebuchet MS,Arial,Helvetica,sans-serif;stroke:none;fill:#000000">120</text><text x="249.31506849315068" y="489.625" text-anchor="middle" style="font:10px Droid Sans,Trebuchet MS,Arial,Helvetica,sans-serif;stroke:none;fill:#000000">140</text><text x="284.93150684931504" y="489.625" text-anchor="middle" style="font:10px Droid Sans,Trebuchet MS,Arial,Helvetica,sans-serif;stroke:none;fill:#000000">160</text><text x="320.54794520547944" y="489.625" text-anchor="middle" style="font:10px Droid Sans,Trebuchet MS,Arial,Helvetica,sans-serif;stroke:none;fill:#000000">180</text><text x="356.16438356164383" y="489.625" text-anchor="middle" style="font:10px Droid Sans,Trebuchet MS,Arial,Helvetica,sans-serif;stroke:none;fill:#000000">200</text><text x="391.7808219178082" y="489.625" text-anchor="middle" style="font:10px Droid Sans,Trebuchet MS,Arial,Helvetica,sans-serif;stroke:none;fill:#000000">220</text><text x="427.39726027397256" y="489.625" text-anchor="middle" style="font:10px Droid Sans,Trebuchet MS,Arial,Helvetica,sans-serif;stroke:none;fill:#000000">240</text><text x="463.01369863013696" y="489.625" text-anchor="middle" style="font:10px Droid Sans,Trebuchet MS,Arial,Helvetica,sans-serif;stroke:none;fill:#000000">260</text><text x="498.63013698630135" y="489.625" text-anchor="middle" style="font:10px Droid Sans,Trebuchet MS,Arial,Helvetica,sans-serif;stroke:none;fill:#000000">280</text><text x="534.2465753424657" y="489.625" text-anchor="middle" style="font:10px Droid Sans,Trebuchet MS,Arial,Helvetica,sans-serif;stroke:none;fill:#000000">300</text><text x="569.8630136986301" y="489.625" text-anchor="middle" style="font:10px Droid Sans,Trebuchet MS,Arial,Helvetica,sans-serif;stroke:none;fill:#000000">320</text><text x="605.4794520547945" y="489.625" text-anchor="middle" style="font:10px Droid Sans,Trebuchet MS,Arial,Helvetica,sans-serif;stroke:none;fill:#000000">340</text><text x="641.0958904109589" y="489.625" text-anchor="middle" style="font:10px Droid Sans,Trebuchet MS,Arial,Helvetica,sans-serif;stroke:none;fill:#000000">360</text><path d="M12.46 -0.00 L12.47 0.00 L12.62 1.00 L12.78 2.00 L12.94 3.00 L13.09 3.99 L13.25 4.99 L13.41 5.99 L13.57 6.99 L13.73 7.99 L13.89 8.98 L14.05 9.98 L14.21 10.98 L14.37 11.98 L14.53 12.98 L14.69 13.97 L14.85 14.97 L15.01 15.97 L15.17 16.97 L15.33 17.97 L15.50 18.96 L15.66 19.96 L15.82 20.96 L15.98 21.96 L16.15 22.96 L16.31 23.95 L16.48 24.95 L16.64 25.95 L16.81 26.95 L16.97 27.95 L17.14 28.94 L17.30 29.94 L17.47 30.94 L17.64 31.94 L17.80 32.93 L17.97 33.93 L18.14 34.93 L18.31 35.93 L18.48 36.93 L18.65 37.92 L18.82 38.92 L18.99 39.92 L19.16 40.92 L19.33 41.92 L19.50 42.91 L19.67 43.91 L19.84 44.91 L20.01 45.91 L20.18 46.90 L20.36 47.90 L20.53 48.90 L20.70 49.90 L20.88 50.90 L21.05 51.89 L21.23 52.89 L21.40 53.89 L21.58 54.89 L21.75 55.88 L21.93 56.88 L22.11 57.88 L22.28 58.88 L22.46 59.88 L22.64 60.87 L22.82 61.87 L22.99 62.87 L23.17 63.87 L23.35 64.86 L23.53 65.86 L23.71 66.86 L23.89 67.86 L24.08 68.85 L24.26 69.85 L24.44 70.85 L24.62 71.85 L24.80 72.85 L24.99 73.84 L25.17 74.84 L25.35 75.84 L25.54 76.84 L25.72 77.83 L25.91 78.83 L26.10 79.83 L26.28 80.83 L26.47 81.82 L26.66 82.82 L26.84 83.82 L27.03 84.82 L27.22 85.81 L27.41 86.81 L27.60 87.81 L27.79 88.81 L27.98 89.81 L28.17 90.80 L28.36 91.80 L28.55 92.80 L28.74 93.80 L28.94 94.79 L29.13 95.79 L29.32 96.79 L29.52 97.79 L29.71 98.78 L29.91 99.78 L30.10 100.78 L30.30 101.78 L30.50 102.77 L30.69 103.77 L30.89 104.77 L31.09 105.77 L31.29 106.76 L31.49 107.76 L31.69 108.76 L31.89 109.76 L32.09 110.75 L32.29 111.75 L32.49 112.75 L32.69 113.75 L32.89 114.74 L33.10 115.74 L33.30 116.74 L33.50 117.73 L33.71 118.73 L33.91 119.73 L34.12 120.73 L34.33 121.72 L34.53 122.72 L34.74 123.72 L34.95 124.72 L35.16 125.71 L35.37 126.71 L35.58 127.71 L35.79 128.71 L36.00 129.70 L36.21 130.70 L36.42 131.70 L36.63 132.69 L36.85 133.69 L37.06 134.69 L37.27 135.69 L37.49 136.68 L37.70 137.68 L37.92 138.68 L38.14 139.68 L38.35 140.67 L38.57 141.67 L38.79 142.67 L39.01 143.66 L39.23 144.66 L39.45 145.66 L39.67 146.66 L39.89 147.65 L40.11 148.65 L40.33 149.65 L40.56 150.64 L40.78 151.64 L41.01 152.64 L41.23 153.64 L41.46 154.63 L41.68 155.63 L41.91 156.63 L42.14 157.62 L42.37 158.62 L42.60 159.62 L42.83 160.62 L43.06 161.61 L43.29 162.61 L43.52 163.61 L43.75 164.60 L43.99 165.60 L44.22 166.60 L44.46 167.60 L44.69 168.59 L44.93 169.59 L45.16 170.59 L45.40 171.58 L45.64 172.58 L45.88 173.58 L46.12 174.57 L46.36 175.57 L46.60 176.57 L46.84 177.56 L47.08 178.56 L47.33 179.56 L47.57 180.56 L47.82 181.55 L48.06 182.55 L48.31 183.55 L48.56 184.54 L48.80 185.54 L49.05 186.54 L49.30 187.53 L49.55 188.53 L49.80 189.53 L50.06 190.52 L50.31 191.52 L50.56 192.52 L50.82 193.51 L51.07 194.51 L51.33 195.51 L51.58 196.50 L51.84 197.50 L52.10 198.50 L52.36 199.49 L52.62 200.49 L52.88 201.49 L53.14 202.48 L53.41 203.48 L53.67 204.48 L53.94 205.47 L54.20 206.47 L54.47 207.47 L54.73 208.46 L55.00 209.46 L55.27 210.46 L55.54 211.45 L55.81 212.45 L56.09 213.45 L56.36 214.44 L56.63 215.44 L56.91 216.44 L57.18 217.43 L57.46 218.43 L57.74 219.43 L58.02 220.42 L58.30 221.42 L58.58 222.42 L58.86 223.41 L59.14 224.41 L59.43 225.40 L59.71 226.40 L60.00 227.40 L60.28 228.39 L60.57 229.39 L60.86 230.39 L61.15 231.38 L61.44 232.38 L61.73 233.38 L62.03 234.37 L62.32 235.37 L62.62 236.36 L62.91 237.36 L63.21 238.36 L63.51 239.35 L63.81 240.35 L64.11 241.35 L64.41 242.34 L64.72 243.34 L65.02 244.33 L65.33 245.33 L65.63 246.33 L65.94 247.32 L66.25 248.32 L66.56 249.31 L66.88 250.31 L67.19 251.31 L67.50 252.30 L67.82 253.30 L68.14 254.29 L68.45 255.29 L68.77 256.29 L69.09 257.28 L69.42 258.28 L69.74 259.27 L70.06 260.27 L70.39 261.27 L70.72 262.26 L71.05 263.26 L71.38 264.25 L71.71 265.25 L72.04 266.24 L72.38 267.24 L72.71 268.24 L73.05 269.23 L73.39 270.23 L73.73 271.22 L74.07 272.22 L74.41 273.21 L74.76 274.21 L75.11 275.21 L75.45 276.20 L75.80 277.20 L76.15 278.19 L76.51 279.19 L76.86 280.18 L77.22 281.18 L77.57 282.17 L77.93 283.17 L78.29 284.17 L78.65 285.16 L79.02 286.16 L79.38 287.15 L79.75 288.15 L80.12 289.14 L80.49 290.14 L80.86 291.13 L81.24 292.13 L81.61 293.12 L81.99 294.12 L82.37 295.11 L82.75 296.11 L83.14 297.10 L83.52 298.10 L83.91 299.09 L84.30 300.09 L84.69 301.08 L85.08 302.08 L85.48 303.07 L85.87 304.07 L86.27 305.06 L86.67 306.06 L87.08 307.05 L87.48 308.05 L87.89 309.04 L88.30 310.04 L88.71 311.03 L89.12 312.03 L89.54 313.02 L89.96 314.02 L90.38 315.01 L90.80 316.01 L91.22 317.00 L91.65 318.00 L92.08 318.99 L92.51 319.98 L92.95 320.98 L93.38 321.97 L93.82 322.97 L94.26 323.96 L94.71 324.96 L95.15 325.95 L95.60 326.95 L96.05 327.94 L96.51 328.93 L96.96 329.93 L97.42 330.92 L97.89 331.92 L98.35 332.91 L98.82 333.90 L99.29 334.90 L99.76 335.89 L100.24 336.89 L100.72 337.88 L101.20 338.87 L101.68 339.87 L102.17 340.86 L102.66 341.86 L103.16 342.85 L103.65 343.84 L104.15 344.84 L104.66 345.83 L105.16 346.82 L105.67 347.82 L106.19 348.81 L106.70 349.80 L107.22 350.80 L107.75 351.79 L108.27 352.78 L108.80 353.78 L109.34 354.77 L109.87 355.76 L110.42 356.76 L110.96 357.75 L111.51 358.74 L112.06 359.74 L112.62 360.73 L113.18 361.72 L113.75 362.72 L114.31 363.71 L114.89 364.70 L115.46 365.69 L116.04 366.69 L116.63 367.68 L117.22 368.67 L117.81 369.66 L118.41 370.66 L119.02 371.65 L119.63 372.64 L120.24 373.63 L120.86 374.63 L121.48 375.62 L122.11 376.61 L122.74 377.60 L123.38 378.59 L124.02 379.59 L124.67 380.58 L125.32 381.57 L125.98 382.56 L126.64 383.55 L127.31 384.54 L127.99 385.53 L128.67 386.53 L129.36 387.52 L130.05 388.51 L130.75 389.50 L131.46 390.49 L132.17 391.48 L132.89 392.47 L133.61 393.46 L134.35 394.45 L135.09 395.45 L135.83 396.44 L136.58 397.43 L137.34 398.42 L138.11 399.41 L138.89 400.40 L139.67 401.39 L140.46 402.38 L141.26 403.37 L142.07 404.36 L142.88 405.35 L143.70 406.34 L144.54 407.33 L145.38 408.32 L146.23 409.30 L147.09 410.29 L147.96 411.28 L148.83 412.27 L149.72 413.26 L150.62 414.25 L151.53 415.24 L152.45 416.23 L153.38 417.21 L154.32 418.20 L155.27 419.19 L156.23 420.18 L157.21 421.17 L158.20 422.15 L159.20 423.14 L160.21 424.13 L161.24 425.12 L162.28 426.10 L163.33 427.09 L164.40 428.08 L165.48 429.06 L166.58 430.05 L167.69 431.03 L168.82 432.02 L169.96 433.01 L171.12 433.99 L172.30 434.98 L173.50 435.96 L174.71 436.95 L175.94 437.93 L177.20 438.91 L178.47 439.90 L179.76 440.88 L181.08 441.87 L182.41 442.85 L183.77 443.83 L185.16 444.81 L186.56 445.80 L188.00 446.78 L189.45 447.76 L190.94 448.74 L192.45 449.72 L194.00 450.70 L195.57 451.68 L197.18 452.66 L198.82 453.64 L200.49 454.62 L202.20 455.60 L203.94 456.58 L205.73 457.56 L207.55 458.53 L209.42 459.51 L211.33 460.49 L213.29 461.46 L215.29 462.43 L217.29 463.38 L219.29 464.30 L221.29 465.20 L223.29 466.08 L225.29 466.93 L227.29 467.77 L229.29 468.58 L231.29 469.37 L233.29 470.14 L235.29 470.90 L237.29 471.63 L239.29 472.34 L241.29 473.04 L243.29 473.72 L245.29 474.38 L247.29 475.03 L249.29 475.66 L251.29 476.27 L253.29 476.87 L255.29 477.45 L257.29 478.02 L259.29 478.57 L261.29 479.11 L263.29 479.64 L265.29 480.15 L267.29 480.65 L269.29 481.14 L271.29 481.62 L273.29 482.08 L275.29 482.53 L277.29 482.97 L279.29 483.40 L281.29 483.82 L283.29 484.23 L285.29 484.62 L287.29 485.01 L289.29 485.39 L291.29 485.76 L293.29 486.12 L295.29 486.47 L297.29 486.81 L299.29 487.14 L301.29 487.46 L303.29 487.78 L305.29 488.09 L307.29 488.39 L309.29 488.68 L311.29 488.97 L313.29 489.24 L315.29 489.52 L317.29 489.78 L319.29 490.04 L321.29 490.29 L323.29 490.53 L325.29 490.77 L327.29 491.00 L329.29 491.23 L331.29 491.45 L333.29 491.67 L335.29 491.88 L337.29 492.08 L339.29 492.28 L341.29 492.48 L343.29 492.67 L345.29 492.85 L347.29 493.03 L349.29 493.21 L351.29 493.38 L353.29 493.54 L355.29 493.71 L357.29 493.87 L359.29 494.02 L361.29 494.17 L363.29 494.32 L365.29 494.46 L367.29 494.60 L369.29 494.74 L371.29 494.87 L373.29 495.00 L375.29 495.12 L377.29 495.25 L379.29 495.37 L381.29 495.48 L383.29 495.60 L385.29 495.71 L387.29 495.82 L389.29 495.92 L391.29 496.03 L393.29 496.13 L395.29 496.22 L397.29 496.32 L399.29 496.41 L401.29 496.50 L403.29 496.59 L405.29 496.68 L407.29 496.76 L409.29 496.84 L411.29 496.92 L413.29 497.00 L415.29 497.07 L417.29 497.15 L419.29 497.22 L421.29 497.29 L423.29 497.36 L425.29 497.42 L427.29 497.49 L429.29 497.55 L431.29 497.61 L433.29 497.67 L435.29 497.73 L437.29 497.79 L439.29 497.85 L441.29 497.90 L443.29 497.95 L445.29 498.00 L447.29 498.05 L449.29 498.10 L451.29 498.15 L453.29 498.20 L455.29 498.24 L457.29 498.29 L459.29 498.33 L461.29 498.37 L463.29 498.41 L465.29 498.45 L467.29 498.49 L469.29 498.53 L471.29 498.57 L473.29 498.60 L475.29 498.64 L477.29 498.67 L479.29 498.71 L481.29 498.74 L483.29 498.77 L485.29 498.80 L487.29 498.83 L489.29 498.86 L491.29 498.89 L493.29 498.92 L495.29 498.95 L497.29 498.97 L499.29 499.00 L501.29 499.02 L503.29 499.05 L505.29 499.07 L507.29 499.10 L509.29 499.12 L511.29 499.14 L513.29 499.16 L515.29 499.18 L517.29 499.20 L519.29 499.22 L521.29 499.24 L523.29 499.26 L525.29 499.28 L527.29 499.30 L529.29 499.32 L531.29 499.33 L533.29 499.35 L535.29 499.37 L537.29 499.38 L539.29 499.40 L541.29 499.41 L543.29 499.43 L545.29 499.44 L547.29 499.46 L549.29 499.47 L551.29 499.48 L553.29 499.50 L555.29 499.51 L557.29 499.52 L559.29 499.53 L561.29 499.55 L563.29 499.56 L565.29 499.57 L567.29 499.58 L569.29 499.59 L571.29 499.60 L573.29 499.61 L575.29 499.62 L577.29 499.63 L579.29 499.64 L581.29 499.65 L583.29 499.66 L585.29 499.67 L587.29 499.67 L589.29 499.68 L591.29 499.69 L593.29 499.70 L595.29 499.71 L597.29 499.71 L599.29 499.72 L601.29 499.73 L603.29 499.73 L605.29 499.74 L607.29 499.75 L609.29 499.75 L611.29 499.76 L613.29 499.77 L615.29 499.77 L617.29 499.78 L619.29 499.78 L621.29 499.79 L623.29 499.79 L625.29 499.80 L627.29 499.80 L629.29 499.81 L631.29 499.81 L633.29 499.82 L635.29 499.82 L637.29 499.83 L639.29 499.83 L641.29 499.84 L643.29 499.84 L645.29 499.84 L647.29 499.85 L649.29 499.85 " style="fill:none;stroke:#000000;stroke-width:1;" /></g></svg>